<svg width="26" height="26" viewBox="0 0 26 26" fill="none" xmlns="http://www.w3.org/2000/svg">
<g clip-path="url(#clip0_125_11)">
<rect width="26" height="26" fill="white"/>
<circle cx="13" cy="13" r="13" fill="#FFB6B6"/>
<path d="M13.0734 19.198C12.3654 19.198 11.7414 19.036 11.2014 18.712C10.6734 18.376 10.2534 17.92 9.94141 17.344C9.78541 17.08 9.74941 16.858 9.83341 16.678C9.91741 16.486 10.0734 16.348 10.3014 16.264C10.5414 16.192 10.7394 16.198 10.8954 16.282C11.0514 16.366 11.2074 16.51 11.3634 16.714C11.5314 17.002 11.7534 17.242 12.0294 17.434C12.3174 17.626 12.6534 17.722 13.0374 17.722C13.7574 17.722 14.3214 17.542 14.7294 17.182C15.1374 16.81 15.3414 16.234 15.3414 15.454C15.3414 14.746 15.1194 14.176 14.6754 13.744C14.2434 13.312 13.6614 13.096 12.9294 13.096C12.4374 13.096 12.1914 12.856 12.1914 12.376C12.1914 11.908 12.4374 11.674 12.9294 11.674C13.6134 11.674 14.1294 11.476 14.4774 11.08C14.8374 10.684 15.0174 10.18 15.0174 9.568C15.0174 8.884 14.8134 8.398 14.4054 8.11C14.0094 7.822 13.5534 7.678 13.0374 7.678C12.6894 7.678 12.3894 7.774 12.1374 7.966C11.8854 8.158 11.6754 8.392 11.5074 8.668C11.3514 8.872 11.1894 9.016 11.0214 9.1C10.8654 9.172 10.6674 9.16 10.4274 9.064C10.1994 8.968 10.0554 8.824 9.99541 8.632C9.93541 8.44 9.98341 8.224 10.1394 7.984C10.4874 7.396 10.9134 6.952 11.4174 6.652C11.9334 6.352 12.4854 6.202 13.0734 6.202C14.1294 6.202 14.9814 6.502 15.6294 7.102C16.2894 7.69 16.6194 8.494 16.6194 9.514C16.6194 10.162 16.4514 10.738 16.1154 11.242C15.7794 11.746 15.3354 12.118 14.7834 12.358C15.4194 12.586 15.9354 12.982 16.3314 13.546C16.7274 14.11 16.9254 14.764 16.9254 15.508C16.9254 16.6 16.5954 17.488 15.9354 18.172C15.2874 18.856 14.3334 19.198 13.0734 19.198Z" fill="white"/>
</g>
<defs>
<clipPath id="clip0_125_11">
<rect width="26" height="26" fill="white"/>
</clipPath>
</defs>
</svg>
