<svg width="26" height="26" viewBox="0 0 26 26" fill="none" xmlns="http://www.w3.org/2000/svg">
<g clip-path="url(#clip0_125_8)">
<rect width="26" height="26" fill="white"/>
<circle cx="13" cy="13" r="13" fill="#FF6464"/>
<path d="M9.91461 19C9.33861 19 9.05061 18.832 9.05061 18.496C9.05061 17.608 9.30261 16.756 9.80661 15.94C10.3226 15.124 11.0666 14.254 12.0386 13.33C12.4466 12.934 12.8246 12.544 13.1726 12.16C13.5326 11.764 13.8266 11.374 14.0546 10.99C14.2826 10.606 14.4026 10.234 14.4146 9.874C14.4386 9.166 14.2766 8.638 13.9286 8.29C13.5806 7.942 13.0886 7.768 12.4526 7.768C12.0086 7.768 11.6366 7.9 11.3366 8.164C11.0366 8.416 10.8386 8.782 10.7426 9.262C10.6706 9.526 10.5746 9.73 10.4546 9.874C10.3346 10.018 10.1486 10.09 9.89661 10.09C9.65661 10.09 9.46461 10.012 9.32061 9.856C9.18861 9.688 9.14661 9.46 9.19461 9.172C9.35061 8.284 9.71661 7.582 10.2926 7.066C10.8806 6.55 11.6006 6.292 12.4526 6.292C13.1486 6.292 13.7606 6.436 14.2886 6.724C14.8286 7 15.2426 7.408 15.5306 7.948C15.8306 8.488 15.9686 9.142 15.9446 9.91C15.9326 10.474 15.7946 11.002 15.5306 11.494C15.2666 11.974 14.9246 12.442 14.5046 12.898C14.0846 13.354 13.6166 13.834 13.1006 14.338C12.5246 14.926 11.9966 15.496 11.5166 16.048C11.0486 16.588 10.7726 17.098 10.6886 17.578H14.9006C15.4766 17.578 15.7646 17.812 15.7646 18.28C15.7646 18.76 15.4766 19 14.9006 19H9.91461Z" fill="white"/>
</g>
<defs>
<clipPath id="clip0_125_8">
<rect width="26" height="26" fill="white"/>
</clipPath>
</defs>
</svg>
