<svg width="26" height="26" viewBox="0 0 26 26" fill="none" xmlns="http://www.w3.org/2000/svg">
<g clip-path="url(#clip0_125_14)">
<rect width="26" height="26" fill="white"/>
<circle cx="13" cy="13" r="13" fill="#CCC0C0"/>
<path d="M14.1187 19C13.6387 19 13.3987 18.712 13.3987 18.136V16.066H9.16873C8.59273 16.066 8.30473 15.862 8.30473 15.454C8.30473 15.238 8.32873 15.052 8.37673 14.896C8.42473 14.728 8.49673 14.554 8.59273 14.374L13.0927 6.904C13.3087 6.52 13.6447 6.328 14.1007 6.328C14.5927 6.328 14.8387 6.616 14.8387 7.192V14.68H15.8287C16.3927 14.68 16.6747 14.908 16.6747 15.364C16.6747 15.832 16.4527 16.066 16.0087 16.066H14.8387V18.136C14.8387 18.712 14.5987 19 14.1187 19ZM9.90673 14.68H13.3987V8.866L9.90673 14.68Z" fill="white"/>
</g>
<defs>
<clipPath id="clip0_125_14">
<rect width="26" height="26" fill="white"/>
</clipPath>
</defs>
</svg>
